<?xml version="1.0" encoding="utf-8"?>
<!-- Generator: Adobe Illustrator 24.1.2, SVG Export Plug-In . SVG Version: 6.00 Build 0)  -->
<svg version="1.1" id="Layer_1" xmlns="http://www.w3.org/2000/svg" xmlns:xlink="http://www.w3.org/1999/xlink" x="0px" y="0px"
	 viewBox="0 0 1080 1080" style="enable-background:new 0 0 1080 1080;" xml:space="preserve">
<rect x="228" y="1667.38" style="fill:none;" width="526.98" height="51.62"/>
<text transform="matrix(1 0 0 1 469.89 1718.79)" style="font-family:'HelveticaNeue-LightItalic'; font-size:72px;">~</text>
<g>
	<g>
		<path d="M472.5,648l-72.08-186.09c-1.38-3.57-5.7-4.98-8.92-2.91h0l-27,189h-27l54-216h27l81,216H472.5z"/>
		<path d="M391.5,567L391.5,567h27h0C411.05,559.55,398.96,559.55,391.5,567z"/>
	</g>
	<path d="M580.5,432h27l71.63,185.97c1.66,3.73,5.88,5.15,9.37,3.03l0,0l27-189h27l-54,216h-27l-71.74-186.09
		c-1.38-3.57-6.04-4.98-9.26-2.91l0,0l-27,189h-27L580.5,432z"/>
</g>
</svg>
